# xmcd CD database file
#
# Track frame offsets:
#	150
#	42386
#	110751
#	149730
#	215149
#	251348
#	297917
#	324505
#
# Disc length: 4621 seconds
#
# Revision: 0
# Processed by: cddbd v1.5.2PL0 Copyright (c) Steve Scherf et al.
# Submitted via: CDex 1.51
#
DISCID=85120b08
DTITLE=Archie Shepp Quartet feat. Amina Claudine Myers - Jazzfest Berlin 2012
DYEAR=2012
DGENRE=Jazz
TTITLE0=Archie Shepp Quartet feat. Amina Claudine Myers - Don't get around much any more
TTITLE1=Archie Shepp Quartet feat. Amina Claudine Myers - Quiet dawn
TTITLE2=Archie Shepp Quartet feat. Amina Claudine Myers - Arms
TTITLE3=Archie Shepp Quartet feat. Amina Claudine Myers - Stars in your eyes
TTITLE4=Archie Shepp Quartet feat. Amina Claudine Myers - Hardtime Blues
TTITLE5=Archie Shepp Quartet feat. Amina Claudine Myers - Mama Rose
TTITLE6=Archie Shepp Quartet feat. Amina Claudine Myers - Call Him
TTITLE7=Archie Shepp Quartet feat. Amina Claudine Myers - Mama too tight
EXTD=YEAR: 2012
EXTT0=
EXTT1=
EXTT2=
EXTT3=
EXTT4=
EXTT5=
EXTT6=
EXTT7=
PLAYORDER=
